{"glyphs":{"\u0000":{"ha":0,"x_min":null,"x_max":null,"o":""},"\r":{"ha":347,"x_min":null,"x_max":null,"o":""}," ":{"ha":208,"x_min":null,"x_max":null,"o":""},",":{"ha":233,"x_min":13,"x_max":221,"o":"m 13 -139 l 40 125 l 221 125 l 138 -139 l 13 -139 z "},".":{"ha":319,"x_min":69,"x_max":250,"o":"m 69 76 l 69 76 q 94 142 69 117 q 161 167 119 167 l 161 167 q 226 142 201 167 q 250 76 250 117 l 250 76 q 226 11 250 36 q 161 -14 201 -14 l 161 -14 q 94 11 119 -14 q 69 76 69 36 z "},"A":{"ha":642,"x_min":13,"x_max":629,"o":"m 179 0 l 13 0 l 185 833 l 457 833 l 629 0 l 463 0 l 421 199 l 221 199 l 179 0 z m 253 357 l 389 357 l 321 686 l 253 357 z "},"B":{"ha":625,"x_min":49,"x_max":588,"o":"m 392 444 l 392 417 q 535 364 483 417 q 588 219 588 311 l 588 219 q 516 56 588 113 q 310 0 444 0 l 310 0 l 49 0 l 49 833 l 324 833 q 499 781 438 833 q 560 628 560 728 l 560 628 q 515 493 560 542 q 392 444 471 444 l 392 444 z m 215 158 l 311 158 q 392 184 363 158 q 421 254 421 210 l 421 254 q 392 325 421 299 q 311 351 363 351 l 311 351 l 215 351 l 215 158 z m 215 510 l 317 510 q 373 531 353 510 q 393 592 393 553 l 393 592 q 373 653 393 632 q 317 675 353 675 l 317 675 l 215 675 l 215 510 z "},"C":{"ha":658,"x_min":38,"x_max":621,"o":"m 621 494 l 454 494 l 454 556 q 422 654 454 619 q 329 689 389 689 l 329 689 q 237 654 269 689 q 204 556 204 619 l 204 556 l 204 278 q 237 179 204 214 q 329 144 269 144 l 329 144 q 422 179 389 144 q 454 278 454 214 l 454 278 l 454 339 l 621 339 l 621 283 q 544 64 621 142 q 329 -14 468 -14 l 329 -14 q 114 64 190 -14 q 38 283 38 142 l 38 283 l 38 550 q 114 769 38 692 q 329 847 190 847 l 329 847 q 544 769 468 847 q 621 550 621 692 l 621 550 l 621 494 z "},"D":{"ha":625,"x_min":49,"x_max":588,"o":"m 49 0 l 49 833 l 296 833 q 511 756 435 833 q 588 536 588 678 l 588 536 l 588 297 q 511 78 588 156 q 296 0 435 0 l 296 0 l 49 0 z m 215 158 l 304 158 q 390 191 360 158 q 421 283 421 224 l 421 283 l 421 550 q 390 642 421 610 q 304 675 360 675 l 304 675 l 215 675 l 215 158 z "},"E":{"ha":503,"x_min":49,"x_max":465,"o":"m 49 0 l 49 833 l 465 833 l 465 675 l 215 675 l 215 496 l 424 496 l 424 338 l 215 338 l 215 158 l 465 158 l 465 0 l 49 0 z "},"F":{"ha":503,"x_min":49,"x_max":465,"o":"m 215 0 l 49 0 l 49 833 l 465 833 l 465 675 l 215 675 l 215 496 l 424 496 l 424 338 l 215 338 l 215 0 z "},"G":{"ha":728,"x_min":38,"x_max":690,"o":"m 622 386 l 690 0 l 531 0 l 503 282 l 482 282 q 279 -14 482 -14 l 279 -14 q 180 8 225 -14 q 103 68 135 29 q 55 162 72 107 q 38 283 38 217 l 38 283 l 38 550 q 114 769 38 692 q 329 847 190 847 l 329 847 q 544 769 468 847 q 621 550 621 692 l 621 550 l 454 550 l 454 556 q 422 654 454 619 q 329 689 389 689 l 329 689 q 237 654 269 689 q 204 556 204 619 l 204 556 l 204 278 q 235 179 204 214 q 322 144 265 144 l 322 144 q 410 179 379 144 q 440 278 440 214 l 440 278 l 440 310 l 329 310 l 329 468 l 524 468 q 622 386 606 468 l 622 386 z "},"H":{"ha":681,"x_min":49,"x_max":632,"o":"m 215 0 l 49 0 l 49 833 l 215 833 l 215 496 l 465 496 l 465 833 l 632 833 l 632 0 l 465 0 l 465 338 l 215 338 l 215 0 z "},"I":{"ha":472,"x_min":49,"x_max":424,"o":"m 49 158 l 153 158 l 153 675 l 49 675 l 49 833 l 424 833 l 424 675 l 319 675 l 319 158 l 424 158 l 424 0 l 49 0 l 49 158 z "},"J":{"ha":589,"x_min":38,"x_max":551,"o":"m 218 675 l 218 833 l 551 833 l 551 283 q 484 64 551 142 q 294 -14 417 -14 l 294 -14 q 105 64 172 -14 q 38 283 38 142 l 38 283 l 38 311 l 204 311 l 204 283 q 228 181 204 217 q 294 144 251 144 l 294 144 q 361 181 338 144 q 385 283 385 217 l 385 283 l 385 675 l 218 675 z "},"K":{"ha":611,"x_min":49,"x_max":599,"o":"m 215 208 l 215 0 l 49 0 l 49 833 l 215 833 l 215 504 l 401 833 l 568 833 l 428 585 q 360 502 397 532 q 289 472 324 472 l 289 472 l 289 444 q 391 417 347 444 q 457 339 435 389 l 457 339 l 599 0 l 424 0 l 285 332 l 215 208 z "},"L":{"ha":503,"x_min":49,"x_max":465,"o":"m 49 0 l 49 833 l 215 833 l 215 158 l 465 158 l 465 0 l 49 0 z "},"M":{"ha":838,"x_min":49,"x_max":789,"o":"m 215 201 l 215 0 l 49 0 l 49 833 l 258 833 l 419 367 l 579 833 l 789 833 l 789 0 l 622 0 l 622 201 q 625 294 622 244 q 633 393 628 343 q 646 492 639 443 q 663 583 653 540 l 663 583 l 635 589 q 612 499 625 546 q 583 403 599 451 q 550 310 568 356 q 514 224 532 264 l 514 224 l 489 167 l 349 167 l 324 224 q 288 310 306 264 q 254 403 269 356 q 226 499 239 451 q 203 589 213 546 l 203 589 l 175 583 q 192 492 185 540 q 205 393 200 443 q 213 294 210 343 q 215 201 215 244 l 215 201 z "},"N":{"ha":681,"x_min":49,"x_max":632,"o":"m 215 239 l 215 0 l 49 0 l 49 833 l 236 833 l 356 571 q 392 486 374 532 q 426 392 410 440 q 455 297 442 344 q 478 207 468 250 l 478 207 l 506 213 q 489 304 496 256 q 476 403 482 353 q 468 502 471 453 q 465 594 465 551 l 465 594 l 465 833 l 632 833 l 632 0 l 444 0 l 325 263 q 289 348 307 303 q 255 441 271 393 q 226 536 239 489 q 203 626 213 583 l 203 626 l 175 621 q 192 529 185 578 q 205 431 200 481 q 213 331 210 381 q 215 239 215 282 l 215 239 z "},"O":{"ha":658,"x_min":38,"x_max":621,"o":"m 38 283 l 38 550 q 114 769 38 692 q 329 847 190 847 l 329 847 q 544 769 468 847 q 621 550 621 692 l 621 550 l 621 283 q 544 64 621 142 q 329 -14 468 -14 l 329 -14 q 114 64 190 -14 q 38 283 38 142 l 38 283 z m 454 278 l 454 556 q 422 654 454 619 q 329 689 389 689 l 329 689 q 237 654 269 689 q 204 556 204 619 l 204 556 l 204 278 q 237 179 204 214 q 329 144 269 144 l 329 144 q 422 179 389 144 q 454 278 454 214 l 454 278 z "},"P":{"ha":625,"x_min":49,"x_max":588,"o":"m 49 0 l 49 833 l 310 833 q 515 765 442 833 q 588 576 588 697 l 588 576 q 515 388 588 454 q 310 322 442 322 l 310 322 l 215 322 l 215 0 l 49 0 z m 215 481 l 307 481 q 390 507 360 481 q 421 578 421 533 l 421 578 q 390 649 421 622 q 307 675 360 675 l 307 675 l 215 675 l 215 481 z "},"Q":{"ha":658,"x_min":38,"x_max":621,"o":"m 38 283 l 38 550 q 114 769 38 692 q 329 847 190 847 l 329 847 q 544 769 468 847 q 621 550 621 692 l 621 550 l 621 283 q 598 149 621 207 q 532 53 575 92 l 532 53 l 588 -69 l 418 -69 l 390 -10 q 329 -14 361 -14 l 329 -14 q 114 64 190 -14 q 38 283 38 142 l 38 283 z m 454 278 l 454 556 q 422 654 454 619 q 329 689 389 689 l 329 689 q 237 654 269 689 q 204 556 204 619 l 204 556 l 204 278 q 237 179 204 214 q 329 144 269 144 l 329 144 q 422 179 389 144 q 454 278 454 214 l 454 278 z "},"R":{"ha":664,"x_min":49,"x_max":615,"o":"m 515 231 l 615 0 l 436 0 l 296 322 l 215 322 l 215 0 l 49 0 l 49 833 l 310 833 q 425 816 374 833 q 513 767 476 799 q 568 691 549 736 q 588 589 588 646 l 588 589 q 533 440 588 493 q 383 388 479 388 l 383 388 l 383 360 q 515 231 458 360 l 515 231 z m 215 481 l 307 481 q 390 507 360 481 q 421 578 421 533 l 421 578 q 390 649 421 622 q 307 675 360 675 l 307 675 l 215 675 l 215 481 z "},"S":{"ha":631,"x_min":38,"x_max":593,"o":"m 51 615 l 51 615 q 117 788 51 728 q 308 847 183 847 l 308 847 q 508 784 438 847 q 579 606 579 721 l 579 606 l 579 578 l 413 578 l 413 606 q 387 667 413 644 q 315 689 361 689 l 315 689 q 244 667 271 689 q 218 607 218 646 l 218 607 q 246 545 218 567 q 315 508 274 524 q 406 475 357 492 q 496 429 454 458 q 565 353 538 400 q 593 228 593 306 l 593 228 q 524 48 593 110 q 322 -14 454 -14 l 322 -14 q 113 49 188 -14 q 38 228 38 113 l 38 228 l 38 256 l 204 256 l 204 228 q 234 167 204 189 q 317 144 264 144 l 317 144 q 397 167 368 144 q 426 235 426 190 l 426 235 q 399 302 426 278 q 329 344 371 326 q 239 378 288 361 q 149 422 190 394 q 79 495 107 450 q 51 615 51 540 z "},"T":{"ha":483,"x_min":13,"x_max":471,"o":"m 325 0 l 158 0 l 158 675 l 13 675 l 13 833 l 471 833 l 471 675 l 325 675 l 325 0 z "},"U":{"ha":631,"x_min":38,"x_max":593,"o":"m 426 833 l 593 833 l 593 283 q 520 64 593 142 q 315 -14 447 -14 l 315 -14 q 110 64 183 -14 q 38 283 38 142 l 38 283 l 38 833 l 204 833 l 204 283 q 233 181 204 218 q 315 144 263 144 l 315 144 q 397 181 368 144 q 426 283 426 218 l 426 283 l 426 833 z "},"V":{"ha":642,"x_min":13,"x_max":629,"o":"m 463 833 l 629 833 l 457 0 l 185 0 l 13 833 l 179 833 l 321 147 l 463 833 z "},"W":{"ha":864,"x_min":13,"x_max":851,"o":"m 851 833 l 679 0 l 501 0 l 431 383 l 360 0 l 185 0 l 13 833 l 179 833 l 283 331 l 367 639 l 494 639 l 579 325 l 685 833 l 851 833 z "},"X":{"ha":608,"x_min":13,"x_max":596,"o":"m 415 833 l 596 833 l 394 417 l 596 0 l 415 0 l 304 231 l 193 0 l 13 0 l 214 417 l 13 833 l 193 833 l 304 603 l 415 833 z "},"Y":{"ha":608,"x_min":13,"x_max":596,"o":"m 13 833 l 190 833 l 304 583 l 418 833 l 596 833 l 388 375 l 388 0 l 221 0 l 221 375 l 13 833 z "},"Z":{"ha":542,"x_min":49,"x_max":493,"o":"m 49 158 l 311 675 l 49 675 l 49 833 l 493 833 l 493 675 l 231 158 l 493 158 l 493 0 l 49 0 l 49 158 z "},"a":{"ha":672,"x_min":38,"x_max":635,"o":"m 268 358 l 385 358 l 385 411 q 315 481 385 481 l 315 481 l 288 481 q 218 411 218 481 l 218 411 l 65 411 q 127 579 65 519 q 301 639 189 639 l 301 639 l 315 639 q 490 579 428 639 q 551 411 551 519 l 551 411 l 551 158 l 635 158 l 635 0 l 399 0 l 413 97 l 385 97 q 328 16 374 46 q 215 -14 282 -14 l 215 -14 q 85 32 132 -14 q 38 160 38 78 l 38 160 q 99 306 38 253 q 268 358 160 358 l 268 358 z m 204 208 l 204 208 q 294 144 204 144 l 294 144 q 361 163 338 144 q 385 214 385 181 l 385 214 l 385 269 l 282 269 q 204 208 204 269 z "},"b":{"ha":642,"x_min":49,"x_max":604,"o":"m 381 653 l 381 653 q 544 575 485 653 q 604 356 604 497 l 604 356 l 604 283 q 538 65 604 143 q 353 -14 471 -14 l 353 -14 q 215 29 268 -14 l 215 29 l 215 0 l 49 0 l 49 903 l 215 903 l 215 804 q 215 745 215 776 q 210 683 214 714 q 197 625 206 653 q 169 575 188 597 l 169 575 l 190 558 q 381 653 268 650 z m 215 383 l 215 256 q 243 174 215 203 q 321 144 271 144 l 321 144 q 407 181 376 144 q 438 283 438 217 l 438 283 l 438 356 q 407 458 438 422 q 321 494 376 494 l 321 494 q 243 465 271 494 q 215 383 215 436 l 215 383 z "},"c":{"ha":631,"x_min":38,"x_max":593,"o":"m 426 250 l 593 250 q 520 56 593 125 q 317 -14 447 -14 l 317 -14 q 110 63 182 -14 q 38 283 38 140 l 38 283 l 38 356 q 110 576 38 499 q 317 653 182 653 l 317 653 q 520 583 447 653 q 593 389 593 514 l 593 389 l 426 389 q 397 466 426 438 q 317 494 367 494 l 317 494 q 204 369 204 494 l 204 369 l 204 269 q 233 176 204 208 q 317 144 261 144 l 317 144 q 397 173 367 144 q 426 250 426 201 l 426 250 z "},"d":{"ha":642,"x_min":38,"x_max":593,"o":"m 261 653 l 261 653 q 451 558 374 650 l 451 558 l 472 575 q 445 625 454 597 q 432 683 436 653 q 427 745 428 714 q 426 804 426 776 l 426 804 l 426 903 l 593 903 l 593 0 l 426 0 l 426 29 q 289 -14 374 -14 l 289 -14 q 104 65 171 -14 q 38 283 38 143 l 38 283 l 38 356 q 97 575 38 497 q 261 653 157 653 z m 426 256 l 426 383 q 399 465 426 436 q 321 494 371 494 l 321 494 q 235 458 265 494 q 204 356 204 422 l 204 356 l 204 283 q 235 181 204 217 q 321 144 265 144 l 321 144 q 399 174 371 144 q 426 256 426 203 l 426 256 z "},"e":{"ha":631,"x_min":38,"x_max":593,"o":"m 593 294 l 204 294 l 204 269 q 233 176 204 208 q 315 144 261 144 l 315 144 q 397 173 367 144 q 426 250 426 201 l 426 250 l 593 250 q 520 56 593 125 q 318 -14 447 -14 l 318 -14 q 110 63 183 -14 q 38 283 38 140 l 38 283 l 38 356 q 110 576 38 499 q 318 653 183 653 l 318 653 q 520 583 447 653 q 593 389 593 514 l 593 389 l 593 294 z m 204 383 l 426 383 l 426 389 q 397 466 426 438 q 315 494 368 494 l 315 494 q 204 383 211 494 l 204 383 z "},"f":{"ha":506,"x_min":49,"x_max":493,"o":"m 49 0 l 49 158 l 132 158 l 132 369 q 153 431 132 410 q 215 453 175 453 l 215 453 l 215 481 l 194 481 l 49 481 l 49 639 l 132 639 l 132 675 q 194 843 132 783 q 368 903 256 903 l 368 903 l 493 903 l 493 744 l 368 744 q 299 675 299 744 l 299 675 l 299 639 l 424 639 l 424 481 l 299 481 l 299 158 l 424 158 l 424 0 l 49 0 z "},"g":{"ha":642,"x_min":38,"x_max":593,"o":"m 440 639 l 593 639 l 593 -136 q 535 -292 593 -236 q 374 -347 478 -347 l 374 -347 l 93 -347 l 93 -189 l 374 -189 q 426 -136 426 -189 l 426 -136 l 426 29 q 289 -14 374 -14 l 289 -14 q 104 65 171 -14 q 38 283 38 143 l 38 283 l 38 356 q 96 574 38 497 q 258 653 154 651 l 258 653 q 451 558 372 653 l 451 558 l 472 575 q 440 639 440 613 l 440 639 z m 426 256 l 426 383 q 399 465 426 436 q 321 494 371 494 l 321 494 q 235 458 265 494 q 204 356 204 422 l 204 356 l 204 283 q 235 181 204 217 q 321 144 265 144 l 321 144 q 399 174 371 144 q 426 256 426 203 l 426 256 z "},"h":{"ha":625,"x_min":49,"x_max":576,"o":"m 215 903 l 215 804 q 215 745 215 776 q 210 683 214 714 q 197 625 206 653 q 169 575 188 597 l 169 575 l 190 558 q 378 653 268 650 l 378 653 q 524 582 472 653 q 576 383 576 511 l 576 383 l 576 0 l 410 0 l 410 356 q 383 458 410 422 q 308 494 357 494 l 308 494 q 240 465 264 494 q 215 383 215 436 l 215 383 l 215 0 l 49 0 l 49 903 l 215 903 z "},"i":{"ha":486,"x_min":49,"x_max":438,"o":"m 49 158 l 160 158 l 160 481 l 76 481 l 76 639 l 326 639 l 326 158 l 438 158 l 438 0 l 49 0 l 49 158 z m 153 813 l 153 813 q 178 878 153 853 q 244 903 203 903 l 244 903 q 309 878 285 903 q 333 813 333 853 l 333 813 q 309 747 333 772 q 244 722 285 722 l 244 722 q 178 747 203 722 q 153 813 153 772 z "},"j":{"ha":410,"x_min":49,"x_max":361,"o":"m 354 639 l 354 -136 q 297 -292 354 -236 q 135 -347 239 -347 l 135 -347 l 49 -347 l 49 -189 l 135 -189 q 188 -136 188 -189 l 188 -136 l 188 481 l 104 481 l 104 639 l 354 639 z m 181 813 l 181 813 q 206 878 181 853 q 272 903 231 903 l 272 903 q 337 878 313 903 q 361 813 361 853 l 361 813 q 337 747 361 772 q 272 722 313 722 l 272 722 q 206 747 231 722 q 181 813 181 772 z "},"k":{"ha":561,"x_min":49,"x_max":549,"o":"m 443 231 l 549 0 l 368 0 l 253 250 l 215 194 l 215 0 l 49 0 l 49 903 l 215 903 l 215 467 l 333 639 l 521 639 l 432 510 q 271 378 340 378 l 271 378 l 271 350 q 443 231 388 350 l 443 231 z "},"l":{"ha":542,"x_min":49,"x_max":493,"o":"m 49 0 l 49 158 l 188 158 l 188 744 l 76 744 l 76 903 l 354 903 l 354 158 l 493 158 l 493 0 l 49 0 z "},"m":{"ha":986,"x_min":49,"x_max":938,"o":"m 722 653 l 722 653 q 883 584 828 653 q 938 383 938 515 l 938 383 l 938 0 l 771 0 l 771 356 q 744 458 771 422 q 669 494 718 494 l 669 494 q 601 465 625 494 q 576 383 576 436 l 576 383 l 576 0 l 410 0 l 410 356 q 383 458 410 422 q 308 494 357 494 l 308 494 q 240 465 264 494 q 215 383 215 436 l 215 383 l 215 0 l 49 0 l 49 639 l 215 639 q 183 575 215 613 l 183 575 l 204 558 q 385 653 282 653 l 385 653 q 487 617 450 653 q 525 517 524 581 l 525 517 l 553 517 q 597 616 551 579 q 722 653 643 653 z "},"n":{"ha":625,"x_min":49,"x_max":576,"o":"m 49 639 l 201 639 q 188 603 194 619 q 169 575 181 588 l 169 575 l 190 558 q 378 653 268 650 l 378 653 q 524 582 472 653 q 576 383 576 511 l 576 383 l 576 0 l 410 0 l 410 356 q 383 458 410 422 q 308 494 357 494 l 308 494 q 240 465 264 494 q 215 383 215 436 l 215 383 l 215 0 l 49 0 l 49 639 z "},"o":{"ha":631,"x_min":38,"x_max":593,"o":"m 38 283 l 38 356 q 110 575 38 497 q 315 653 183 653 l 315 653 q 520 575 447 653 q 593 356 593 497 l 593 356 l 593 283 q 520 64 593 142 q 315 -14 447 -14 l 315 -14 q 110 64 183 -14 q 38 283 38 142 l 38 283 z m 315 144 l 315 144 q 397 177 368 144 q 426 269 426 210 l 426 269 l 426 369 q 397 462 426 429 q 315 494 368 494 l 315 494 q 233 462 263 494 q 204 369 204 429 l 204 369 l 204 269 q 233 177 204 210 q 315 144 263 144 z "},"p":{"ha":642,"x_min":49,"x_max":604,"o":"m 381 -14 l 381 -14 q 190 81 268 -11 l 190 81 l 169 64 q 197 14 188 42 q 210 -44 206 -14 q 215 -106 214 -75 q 215 -165 215 -137 l 215 -165 l 215 -264 l 49 -264 l 49 639 l 215 639 l 215 610 q 353 653 268 653 l 353 653 q 538 574 471 653 q 604 356 604 496 l 604 356 l 604 283 q 544 64 604 142 q 381 -14 485 -14 z m 215 383 l 215 256 q 243 174 215 203 q 321 144 271 144 l 321 144 q 407 181 376 144 q 438 283 438 217 l 438 283 l 438 356 q 407 458 438 422 q 321 494 376 494 l 321 494 q 243 465 271 494 q 215 383 215 436 l 215 383 z "},"q":{"ha":642,"x_min":38,"x_max":593,"o":"m 261 -14 l 261 -14 q 97 64 157 -14 q 38 283 38 142 l 38 283 l 38 356 q 104 574 38 496 q 289 653 171 653 l 289 653 q 426 610 374 653 l 426 610 l 426 639 l 593 639 l 593 -264 l 426 -264 l 426 -165 q 427 -106 426 -137 q 432 -44 428 -75 q 445 14 436 -14 q 472 64 454 42 l 472 64 l 451 81 q 261 -14 374 -11 z m 426 256 l 426 383 q 399 465 426 436 q 321 494 371 494 l 321 494 q 235 458 265 494 q 204 356 204 422 l 204 356 l 204 283 q 235 181 204 217 q 321 144 265 144 l 321 144 q 399 174 371 144 q 426 256 426 203 l 426 256 z "},"r":{"ha":547,"x_min":49,"x_max":535,"o":"m 49 0 l 49 158 l 160 158 l 160 481 l 76 481 l 76 639 l 313 639 q 299 603 306 619 q 281 575 292 588 l 281 575 l 301 558 q 489 653 379 650 l 489 653 l 535 653 l 535 494 l 468 494 q 363 465 400 494 q 326 383 326 436 l 326 383 l 326 158 l 438 158 l 438 0 l 49 0 z "},"s":{"ha":597,"x_min":38,"x_max":560,"o":"m 393 201 l 393 201 q 368 249 393 233 q 305 274 343 264 q 222 292 267 283 q 140 320 178 301 q 76 373 101 339 q 51 467 51 407 l 51 467 q 113 606 51 558 q 288 653 175 653 l 288 653 q 478 597 410 653 q 546 439 546 540 l 546 439 l 379 439 q 356 480 379 465 q 293 494 333 494 l 293 494 q 238 483 257 494 q 218 444 218 471 l 218 444 q 243 401 218 415 q 306 377 268 386 q 389 360 344 368 q 472 332 433 351 q 535 278 510 313 q 560 182 560 243 l 560 182 q 493 36 560 86 q 307 -14 426 -14 l 307 -14 q 108 42 179 -14 q 38 200 38 99 l 38 200 l 204 200 q 231 159 204 174 q 303 144 257 144 l 303 144 q 369 158 346 144 q 393 201 393 172 z "},"t":{"ha":414,"x_min":13,"x_max":401,"o":"m 13 481 l 13 639 l 82 639 l 110 792 l 263 792 l 263 639 l 388 639 l 388 481 l 263 481 l 263 228 q 332 158 263 158 l 332 158 l 401 158 l 401 0 l 332 0 q 158 60 219 0 q 96 228 96 119 l 96 228 l 96 369 q 117 431 96 410 q 179 453 139 453 l 179 453 l 179 481 l 13 481 z "},"u":{"ha":625,"x_min":49,"x_max":576,"o":"m 576 0 l 424 1 q 456 64 438 42 l 456 64 l 435 82 q 349 12 397 36 q 247 -12 301 -12 l 247 -12 q 101 57 153 -14 q 49 256 49 128 l 49 256 l 49 639 l 215 639 l 215 283 q 242 181 215 217 q 317 144 268 144 l 317 144 q 385 174 361 144 q 410 256 410 203 l 410 256 l 410 639 l 576 639 l 576 0 z "},"v":{"ha":594,"x_min":13,"x_max":582,"o":"m 413 639 l 582 639 l 425 0 l 169 0 l 13 639 l 182 639 l 297 169 l 413 639 z "},"w":{"ha":808,"x_min":13,"x_max":796,"o":"m 626 639 l 796 639 l 639 0 l 468 0 l 404 246 l 340 0 l 169 0 l 13 639 l 182 639 l 274 267 l 342 444 l 467 444 l 535 267 l 626 639 z "},"x":{"ha":583,"x_min":13,"x_max":571,"o":"m 571 639 l 385 319 l 571 0 l 386 0 l 292 161 l 197 0 l 13 0 l 200 319 l 13 639 l 197 639 l 292 478 l 386 639 l 571 639 z "},"y":{"ha":626,"x_min":50,"x_max":578,"o":"m 411 -136 l 411 -122 q 457 64 411 8 l 457 64 l 436 81 q 249 -14 358 -11 l 249 -14 q 102 57 154 -14 q 50 256 50 128 l 50 256 l 50 639 l 217 639 l 217 283 q 243 181 217 217 q 318 144 269 144 l 318 144 q 387 174 363 144 q 411 256 411 203 l 411 256 l 411 639 l 578 639 l 578 -136 q 520 -292 578 -236 q 358 -347 463 -347 l 358 -347 l 78 -347 l 78 -189 l 358 -189 q 411 -136 411 -189 l 411 -136 z "},"z":{"ha":514,"x_min":49,"x_max":465,"o":"m 49 158 l 268 481 l 49 481 l 49 639 l 465 639 l 465 481 l 246 158 l 465 158 l 465 0 l 49 0 l 49 158 z "}}}
